<?xml version="1.0" encoding="iso-8859-1"?>
<!-- Generator: Adobe Illustrator 19.0.0, SVG Export Plug-In . SVG Version: 6.00 Build 0)  -->
<svg version="1.1" id="Layer_1" xmlns="http://www.w3.org/2000/svg" xmlns:xlink="http://www.w3.org/1999/xlink" x="0px" y="0px"
	 viewBox="0 0 512 512" style="enable-background:new 0 0 512 512;" xml:space="preserve">
<path style="fill:#FF7058;" d="M446.933,184.933c-105.6-102.4-276.267-102.4-381.867,0L6.4,241.467
	c-8.533,8.533-8.533,21.333,0,29.867l58.667,56.533c105.6,101.333,276.267,101.333,381.867,0l58.667-56.533
	c8.533-8.533,8.533-21.333,0-29.867L446.933,184.933z"/>
<path style="fill:#FFFFFF;" d="M499.2,261.733L432,304.4c-34.133,21.333-75.733,35.2-119.467,41.6
	c-37.333,5.333-75.733,5.333-113.067,0c-43.733-6.4-85.333-20.267-119.467-41.6l-67.2-42.667c-4.267-2.133-4.267-8.533,0-10.667
	L80,208.4c34.133-21.333,75.733-35.2,118.4-41.6c37.333-5.333,75.733-5.333,113.067,0c43.733,6.4,85.333,20.267,118.4,41.6
	l67.2,42.667C503.467,253.2,503.467,259.6,499.2,261.733z"/>
<path style="fill:#54C0EB;" d="M362.667,256.4c0,37.333-19.2,70.4-49.067,89.6c-38.4,5.333-77.867,5.333-115.2,0
	c-29.867-19.2-49.067-52.267-49.067-89.6s19.2-70.4,48-89.6c38.4-5.333,77.867-5.333,116.267,0
	C343.467,186,362.667,219.067,362.667,256.4z"/>
<circle style="fill:#334A5E;" cx="256" cy="256.4" r="61.867"/>
<circle style="fill:#FFFFFF;" cx="216.533" cy="216.933" r="25.6"/>
<g>
</g>
<g>
</g>
<g>
</g>
<g>
</g>
<g>
</g>
<g>
</g>
<g>
</g>
<g>
</g>
<g>
</g>
<g>
</g>
<g>
</g>
<g>
</g>
<g>
</g>
<g>
</g>
<g>
</g>
</svg>
